<svg xmlns="http://www.w3.org/2000/svg" xmlns:xlink="http://www.w3.org/1999/xlink" width="222" zoomAndPan="magnify" viewBox="0 0 166.5 39.749999" height="53" preserveAspectRatio="xMidYMid meet" version="1.0"><defs><g/><clipPath id="2f30879632"><path d="M 0.273438 22.050781 L 55.847656 22.050781 L 55.847656 39.113281 L 0.273438 39.113281 Z M 0.273438 22.050781 " clip-rule="nonzero"/></clipPath><clipPath id="8a34d34ce0"><path d="M 8 2.863281 L 39 2.863281 L 39 29 L 8 29 Z M 8 2.863281 " clip-rule="nonzero"/></clipPath><clipPath id="9277e6a3aa"><path d="M 8.703125 2.878906 L 55.847656 2.878906 L 55.847656 28.890625 L 8.703125 28.890625 Z M 8.703125 2.878906 " clip-rule="nonzero"/></clipPath></defs><g fill="#ffffff" fill-opacity="1"><g transform="translate(38.984817, 19.845721)"><g><path d="M 18.046875 -17 C 18.609375 -17 19.0625 -16.847656 19.40625 -16.546875 C 19.75 -16.253906 19.921875 -15.878906 19.921875 -15.421875 C 19.921875 -14.773438 19.601562 -14.132812 18.96875 -13.5 L 7.890625 -2.453125 L 10.90625 -2.453125 C 11.226562 -2.453125 11.507812 -2.515625 11.75 -2.640625 C 12 -2.765625 12.269531 -2.988281 12.5625 -3.3125 L 14.09375 -5 C 14.363281 -5.289062 14.617188 -5.5 14.859375 -5.625 C 15.109375 -5.757812 15.414062 -5.828125 15.78125 -5.828125 C 16.15625 -5.828125 16.460938 -5.738281 16.703125 -5.5625 C 16.941406 -5.394531 17.0625 -5.140625 17.0625 -4.796875 C 17.0625 -4.660156 17.035156 -4.5 16.984375 -4.3125 L 16.234375 -1.734375 C 16.046875 -1.085938 15.773438 -0.632812 15.421875 -0.375 C 15.066406 -0.125 14.546875 0 13.859375 0 L 2.421875 0 C 1.691406 0 1.144531 -0.144531 0.78125 -0.4375 C 0.414062 -0.738281 0.234375 -1.144531 0.234375 -1.65625 C 0.234375 -1.96875 0.3125 -2.269531 0.46875 -2.5625 C 0.632812 -2.863281 0.894531 -3.203125 1.25 -3.578125 L 11.640625 -14.546875 L 9.265625 -14.546875 C 8.941406 -14.546875 8.65625 -14.484375 8.40625 -14.359375 C 8.164062 -14.234375 7.898438 -14.007812 7.609375 -13.6875 L 6.078125 -12 C 5.804688 -11.707031 5.546875 -11.5 5.296875 -11.375 C 5.046875 -11.25 4.742188 -11.1875 4.390625 -11.1875 C 4.015625 -11.1875 3.707031 -11.269531 3.46875 -11.4375 C 3.226562 -11.601562 3.109375 -11.859375 3.109375 -12.203125 C 3.109375 -12.359375 3.132812 -12.519531 3.1875 -12.6875 L 3.9375 -15.265625 C 4.125 -15.910156 4.394531 -16.359375 4.75 -16.609375 C 5.101562 -16.867188 5.625 -17 6.3125 -17 Z M 18.046875 -17 "/></g></g></g><g fill="#ffffff" fill-opacity="1"><g transform="translate(58.919486, 19.845721)"><g><path d="M 6.71875 -13.5 C 7.707031 -13.5 8.429688 -13.3125 8.890625 -12.9375 C 9.347656 -12.5625 9.578125 -12.050781 9.578125 -11.40625 C 9.578125 -11.019531 9.515625 -10.648438 9.390625 -10.296875 L 7.046875 -2.65625 C 6.992188 -2.445312 6.96875 -2.269531 6.96875 -2.125 C 6.96875 -1.894531 7.007812 -1.71875 7.09375 -1.59375 C 7.1875 -1.46875 7.304688 -1.34375 7.453125 -1.21875 C 7.578125 -1.101562 7.660156 -1.003906 7.703125 -0.921875 C 7.753906 -0.847656 7.765625 -0.753906 7.734375 -0.640625 C 7.648438 -0.421875 7.476562 -0.257812 7.21875 -0.15625 C 6.96875 -0.0507812 6.578125 0 6.046875 0 L 0.234375 0 C -0.210938 0 -0.535156 -0.0703125 -0.734375 -0.21875 C -0.941406 -0.363281 -1.007812 -0.554688 -0.9375 -0.796875 C -0.875 -0.992188 -0.695312 -1.171875 -0.40625 -1.328125 C -0.15625 -1.460938 0.0507812 -1.625 0.21875 -1.8125 C 0.394531 -2 0.546875 -2.296875 0.671875 -2.703125 L 2.890625 -10.078125 C 2.941406 -10.234375 2.96875 -10.363281 2.96875 -10.46875 C 2.96875 -10.65625 2.921875 -10.800781 2.828125 -10.90625 C 2.742188 -11.019531 2.617188 -11.140625 2.453125 -11.265625 C 2.285156 -11.398438 2.164062 -11.515625 2.09375 -11.609375 C 2.03125 -11.710938 2.019531 -11.851562 2.0625 -12.03125 C 2.164062 -12.414062 2.703125 -12.753906 3.671875 -13.046875 C 4.648438 -13.347656 5.664062 -13.5 6.71875 -13.5 Z M 8.4375 -19.15625 C 9.09375 -19.15625 9.640625 -18.9375 10.078125 -18.5 C 10.523438 -18.0625 10.75 -17.53125 10.75 -16.90625 C 10.75 -16.457031 10.632812 -16.019531 10.40625 -15.59375 C 10.175781 -15.175781 9.851562 -14.832031 9.4375 -14.5625 C 9.019531 -14.300781 8.554688 -14.171875 8.046875 -14.171875 C 7.398438 -14.171875 6.859375 -14.382812 6.421875 -14.8125 C 5.992188 -15.25 5.769531 -15.789062 5.75 -16.4375 C 5.75 -16.863281 5.859375 -17.285156 6.078125 -17.703125 C 6.304688 -18.117188 6.625 -18.460938 7.03125 -18.734375 C 7.4375 -19.015625 7.90625 -19.15625 8.4375 -19.15625 Z M 8.4375 -19.15625 "/></g></g></g><g fill="#ffffff" fill-opacity="1"><g transform="translate(69.461179, 19.845721)"><g><path d="M 9.265625 -13.640625 C 10.304688 -13.640625 11.21875 -13.488281 12 -13.1875 C 12.78125 -12.882812 13.382812 -12.472656 13.8125 -11.953125 C 14.25 -11.441406 14.46875 -10.867188 14.46875 -10.234375 C 14.46875 -9.554688 14.234375 -8.992188 13.765625 -8.546875 C 13.304688 -8.109375 12.675781 -7.890625 11.875 -7.890625 C 11.050781 -7.890625 10.410156 -8.097656 9.953125 -8.515625 C 9.492188 -8.929688 9.265625 -9.5 9.265625 -10.21875 C 9.265625 -10.550781 9.316406 -10.90625 9.421875 -11.28125 C 8.703125 -11.09375 8.066406 -10.722656 7.515625 -10.171875 C 6.960938 -9.617188 6.59375 -8.890625 6.40625 -7.984375 C 6.300781 -7.472656 6.25 -7.015625 6.25 -6.609375 C 6.25 -5.691406 6.503906 -4.992188 7.015625 -4.515625 C 7.523438 -4.035156 8.257812 -3.796875 9.21875 -3.796875 C 9.757812 -3.796875 10.222656 -3.851562 10.609375 -3.96875 C 11.003906 -4.082031 11.410156 -4.234375 11.828125 -4.421875 C 12.160156 -4.585938 12.40625 -4.671875 12.5625 -4.671875 C 12.664062 -4.671875 12.734375 -4.648438 12.765625 -4.609375 C 12.796875 -4.566406 12.8125 -4.476562 12.8125 -4.34375 C 12.832031 -3.707031 12.570312 -3.046875 12.03125 -2.359375 C 11.5 -1.671875 10.757812 -1.09375 9.8125 -0.625 C 8.875 -0.15625 7.816406 0.078125 6.640625 0.078125 C 5.410156 0.078125 4.320312 -0.144531 3.375 -0.59375 C 2.4375 -1.050781 1.707031 -1.695312 1.1875 -2.53125 C 0.664062 -3.375 0.40625 -4.359375 0.40625 -5.484375 C 0.40625 -6.015625 0.472656 -6.601562 0.609375 -7.25 C 1.066406 -9.363281 2.082031 -10.957031 3.65625 -12.03125 C 5.238281 -13.101562 7.109375 -13.640625 9.265625 -13.640625 Z M 9.265625 -13.640625 "/></g></g></g><g fill="#ffffff" fill-opacity="1"><g transform="translate(84.495165, 19.845721)"><g><path d="M 8.40625 -13.734375 C 9.8125 -13.734375 11.03125 -13.601562 12.0625 -13.34375 C 13.09375 -13.09375 13.882812 -12.738281 14.4375 -12.28125 C 14.988281 -11.820312 15.265625 -11.300781 15.265625 -10.71875 C 15.265625 -10.125 15.03125 -9.640625 14.5625 -9.265625 C 14.09375 -8.890625 13.441406 -8.703125 12.609375 -8.703125 C 11.753906 -8.703125 11.035156 -8.914062 10.453125 -9.34375 C 9.867188 -9.769531 9.578125 -10.304688 9.578125 -10.953125 C 9.578125 -11.171875 9.609375 -11.382812 9.671875 -11.59375 C 9.367188 -11.675781 9.097656 -11.71875 8.859375 -11.71875 C 8.429688 -11.71875 8.078125 -11.613281 7.796875 -11.40625 C 7.515625 -11.207031 7.382812 -10.921875 7.40625 -10.546875 C 7.40625 -10.097656 7.625 -9.722656 8.0625 -9.421875 C 8.507812 -9.117188 9.226562 -8.734375 10.21875 -8.265625 C 11.0625 -7.890625 11.757812 -7.546875 12.3125 -7.234375 C 12.875 -6.921875 13.34375 -6.523438 13.71875 -6.046875 C 14.101562 -5.578125 14.296875 -5.015625 14.296875 -4.359375 C 14.296875 -4.222656 14.265625 -3.96875 14.203125 -3.59375 C 13.921875 -2.457031 13.160156 -1.554688 11.921875 -0.890625 C 10.679688 -0.222656 9.046875 0.109375 7.015625 0.109375 C 4.734375 0.109375 2.925781 -0.195312 1.59375 -0.8125 C 0.257812 -1.425781 -0.40625 -2.269531 -0.40625 -3.34375 C -0.40625 -4.070312 -0.1875 -4.625 0.25 -5 C 0.695312 -5.375 1.285156 -5.5625 2.015625 -5.5625 C 2.867188 -5.5625 3.597656 -5.296875 4.203125 -4.765625 C 4.804688 -4.242188 5.109375 -3.570312 5.109375 -2.75 C 5.109375 -2.53125 5.082031 -2.300781 5.03125 -2.0625 C 5.4375 -1.96875 5.828125 -1.921875 6.203125 -1.921875 C 6.648438 -1.921875 7.015625 -2.035156 7.296875 -2.265625 C 7.585938 -2.503906 7.734375 -2.835938 7.734375 -3.265625 C 7.710938 -3.660156 7.515625 -4 7.140625 -4.28125 C 6.773438 -4.5625 6.179688 -4.894531 5.359375 -5.28125 C 4.597656 -5.644531 3.96875 -5.984375 3.46875 -6.296875 C 2.976562 -6.609375 2.554688 -7.003906 2.203125 -7.484375 C 1.859375 -7.960938 1.6875 -8.523438 1.6875 -9.171875 C 1.6875 -10.566406 2.269531 -11.675781 3.4375 -12.5 C 4.601562 -13.320312 6.257812 -13.734375 8.40625 -13.734375 Z M 8.40625 -13.734375 "/></g></g></g><g fill="#ffffff" fill-opacity="1"><g transform="translate(100.830894, 19.845721)"><g><path d="M 23.96875 -9.875 C 23.96875 -8.363281 23.441406 -6.816406 22.390625 -5.234375 C 21.335938 -3.648438 20.003906 -2.34375 18.390625 -1.3125 C 16.785156 -0.28125 15.207031 0.234375 13.65625 0.234375 C 12.4375 0.234375 11.398438 0.0195312 10.546875 -0.40625 C 9.691406 -0.832031 9.140625 -1.445312 8.890625 -2.25 C 8.253906 -1.476562 7.550781 -0.894531 6.78125 -0.5 C 6.019531 -0.113281 5.222656 0.078125 4.390625 0.078125 C 3.234375 0.078125 2.289062 -0.207031 1.5625 -0.78125 C 0.84375 -1.351562 0.484375 -2.191406 0.484375 -3.296875 C 0.484375 -3.867188 0.578125 -4.460938 0.765625 -5.078125 L 2.203125 -10.078125 C 2.234375 -10.222656 2.25 -10.328125 2.25 -10.390625 C 2.25 -10.554688 2.203125 -10.695312 2.109375 -10.8125 C 2.023438 -10.9375 1.910156 -11.066406 1.765625 -11.203125 C 1.503906 -11.429688 1.375 -11.628906 1.375 -11.796875 C 1.363281 -12.035156 1.507812 -12.289062 1.8125 -12.5625 C 2.113281 -12.832031 2.539062 -13.054688 3.09375 -13.234375 C 3.65625 -13.410156 4.285156 -13.5 4.984375 -13.5 C 6.117188 -13.5 7.003906 -13.222656 7.640625 -12.671875 C 8.285156 -12.117188 8.609375 -11.398438 8.609375 -10.515625 C 8.609375 -10.128906 8.539062 -9.707031 8.40625 -9.25 L 7.09375 -4.90625 C 7.03125 -4.664062 7 -4.503906 7 -4.421875 C 7 -4.191406 7.0625 -4.019531 7.1875 -3.90625 C 7.3125 -3.789062 7.484375 -3.734375 7.703125 -3.734375 C 8.015625 -3.734375 8.273438 -3.835938 8.484375 -4.046875 C 8.703125 -4.253906 8.910156 -4.597656 9.109375 -5.078125 L 10.5625 -10.078125 C 10.601562 -10.222656 10.625 -10.328125 10.625 -10.390625 C 10.625 -10.554688 10.578125 -10.695312 10.484375 -10.8125 C 10.398438 -10.9375 10.285156 -11.066406 10.140625 -11.203125 C 9.878906 -11.429688 9.75 -11.628906 9.75 -11.796875 C 9.738281 -12.035156 9.882812 -12.289062 10.1875 -12.5625 C 10.488281 -12.832031 10.914062 -13.054688 11.46875 -13.234375 C 12.03125 -13.410156 12.660156 -13.5 13.359375 -13.5 C 14.515625 -13.5 15.40625 -13.226562 16.03125 -12.6875 C 16.664062 -12.144531 16.984375 -11.421875 16.984375 -10.515625 C 16.984375 -10.160156 16.914062 -9.738281 16.78125 -9.25 L 15.109375 -3.78125 C 15.078125 -3.695312 15.0625 -3.566406 15.0625 -3.390625 C 15.0625 -3.171875 15.132812 -3 15.28125 -2.875 C 15.4375 -2.757812 15.65625 -2.703125 15.9375 -2.703125 C 16.3125 -2.703125 16.75 -2.867188 17.25 -3.203125 C 17.75 -3.535156 18.238281 -4.007812 18.71875 -4.625 C 19.207031 -5.25 19.609375 -5.988281 19.921875 -6.84375 C 19.234375 -7.4375 18.75 -8.019531 18.46875 -8.59375 C 18.1875 -9.175781 18.046875 -9.773438 18.046875 -10.390625 C 18.046875 -11.253906 18.285156 -11.988281 18.765625 -12.59375 C 19.242188 -13.195312 19.929688 -13.5 20.828125 -13.5 C 21.734375 -13.5 22.484375 -13.175781 23.078125 -12.53125 C 23.671875 -11.882812 23.96875 -11 23.96875 -9.875 Z M 23.96875 -9.875 "/></g></g></g><g fill="#ffffff" fill-opacity="1"><g transform="translate(125.691771, 19.845721)"><g><path d="M 9.109375 -13.5 C 11.066406 -13.5 12.632812 -13.132812 13.8125 -12.40625 C 14.988281 -11.6875 15.578125 -10.585938 15.578125 -9.109375 C 15.578125 -8.546875 15.472656 -7.910156 15.265625 -7.203125 L 14.21875 -3.671875 C 14.207031 -3.609375 14.203125 -3.523438 14.203125 -3.421875 C 14.203125 -3.148438 14.3125 -3.015625 14.53125 -3.015625 C 14.726562 -3.015625 14.898438 -3.101562 15.046875 -3.28125 C 15.191406 -3.457031 15.289062 -3.546875 15.34375 -3.546875 C 15.425781 -3.546875 15.5 -3.484375 15.5625 -3.359375 C 15.625 -3.242188 15.65625 -3.113281 15.65625 -2.96875 C 15.664062 -2.5 15.488281 -2.023438 15.125 -1.546875 C 14.757812 -1.078125 14.269531 -0.6875 13.65625 -0.375 C 13.039062 -0.0703125 12.367188 0.078125 11.640625 0.078125 C 10.753906 0.078125 9.992188 -0.0820312 9.359375 -0.40625 C 8.734375 -0.726562 8.300781 -1.207031 8.0625 -1.84375 C 7.550781 -1.226562 6.945312 -0.753906 6.25 -0.421875 C 5.550781 -0.0859375 4.804688 0.078125 4.015625 0.078125 C 3.109375 0.078125 2.347656 -0.09375 1.734375 -0.4375 C 1.117188 -0.789062 0.660156 -1.242188 0.359375 -1.796875 C 0.0664062 -2.347656 -0.078125 -2.929688 -0.078125 -3.546875 C -0.078125 -3.816406 -0.0507812 -4.082031 0 -4.34375 C 0.269531 -5.519531 0.859375 -6.40625 1.765625 -7 C 2.679688 -7.59375 3.769531 -7.890625 5.03125 -7.890625 C 6.445312 -7.890625 7.832031 -7.664062 9.1875 -7.21875 L 9.828125 -8.90625 C 10.046875 -9.625 10.15625 -10.175781 10.15625 -10.5625 C 10.144531 -10.976562 10.007812 -11.285156 9.75 -11.484375 C 9.5 -11.691406 9.109375 -11.796875 8.578125 -11.796875 C 8.679688 -11.523438 8.734375 -11.242188 8.734375 -10.953125 C 8.734375 -10.328125 8.492188 -9.78125 8.015625 -9.3125 C 7.535156 -8.851562 6.851562 -8.625 5.96875 -8.625 C 5.132812 -8.625 4.484375 -8.804688 4.015625 -9.171875 C 3.546875 -9.546875 3.3125 -10.003906 3.3125 -10.546875 C 3.3125 -11.398438 3.785156 -12.101562 4.734375 -12.65625 C 5.691406 -13.21875 7.148438 -13.5 9.109375 -13.5 Z M 7.6875 -5.765625 C 7.207031 -5.765625 6.816406 -5.582031 6.515625 -5.21875 C 6.222656 -4.851562 6.078125 -4.457031 6.078125 -4.03125 C 6.078125 -3.757812 6.140625 -3.535156 6.265625 -3.359375 C 6.390625 -3.191406 6.570312 -3.109375 6.8125 -3.109375 C 7.039062 -3.109375 7.285156 -3.195312 7.546875 -3.375 C 7.804688 -3.5625 8 -3.832031 8.125 -4.1875 L 8.65625 -5.6875 C 8.363281 -5.738281 8.039062 -5.765625 7.6875 -5.765625 Z M 7.6875 -5.765625 "/></g></g></g><g fill="#ffffff" fill-opacity="1"><g transform="translate(143.584494, 19.845721)"><g><path d="M 13.359375 -13.609375 C 14.660156 -13.609375 15.6875 -13.171875 16.4375 -12.296875 C 17.1875 -11.429688 17.5625 -10.25 17.5625 -8.75 C 17.5625 -7.957031 17.453125 -7.117188 17.234375 -6.234375 C 16.722656 -4.117188 15.769531 -2.507812 14.375 -1.40625 C 12.976562 -0.3125 11.359375 0.234375 9.515625 0.234375 C 8.347656 0.234375 7.328125 -0.015625 6.453125 -0.515625 L 5.640625 2.21875 C 5.578125 2.40625 5.546875 2.582031 5.546875 2.75 C 5.546875 2.9375 5.585938 3.09375 5.671875 3.21875 C 5.753906 3.351562 5.863281 3.476562 6 3.59375 C 6.132812 3.726562 6.222656 3.835938 6.265625 3.921875 C 6.304688 4.015625 6.3125 4.117188 6.28125 4.234375 C 6.207031 4.453125 6.039062 4.609375 5.78125 4.703125 C 5.53125 4.796875 5.144531 4.84375 4.625 4.84375 L -1.21875 4.84375 C -1.664062 4.84375 -1.984375 4.769531 -2.171875 4.625 C -2.367188 4.488281 -2.425781 4.304688 -2.34375 4.078125 C -2.3125 3.941406 -2.253906 3.832031 -2.171875 3.75 C -2.085938 3.664062 -1.96875 3.585938 -1.8125 3.515625 C -1.5625 3.347656 -1.359375 3.175781 -1.203125 3 C -1.046875 2.820312 -0.910156 2.535156 -0.796875 2.140625 L 2.9375 -10.078125 C 2.988281 -10.234375 3.015625 -10.363281 3.015625 -10.46875 C 3.015625 -10.65625 2.96875 -10.800781 2.875 -10.90625 C 2.789062 -11.019531 2.664062 -11.140625 2.5 -11.265625 C 2.332031 -11.398438 2.210938 -11.515625 2.140625 -11.609375 C 2.078125 -11.710938 2.070312 -11.851562 2.125 -12.03125 C 2.21875 -12.414062 2.75 -12.753906 3.71875 -13.046875 C 4.695312 -13.347656 5.710938 -13.5 6.765625 -13.5 C 7.515625 -13.5 8.128906 -13.3125 8.609375 -12.9375 C 9.097656 -12.5625 9.378906 -12.046875 9.453125 -11.390625 C 10.609375 -12.867188 11.910156 -13.609375 13.359375 -13.609375 Z M 10.390625 -6.03125 C 10.796875 -7.539062 11 -8.585938 11 -9.171875 C 11 -9.523438 10.941406 -9.753906 10.828125 -9.859375 C 10.722656 -9.972656 10.566406 -10.03125 10.359375 -10.03125 C 10.210938 -10.03125 10.019531 -9.957031 9.78125 -9.8125 C 9.539062 -9.664062 9.300781 -9.425781 9.0625 -9.09375 L 7.046875 -2.40625 C 7.253906 -2.195312 7.5 -2.09375 7.78125 -2.09375 C 8.238281 -2.09375 8.675781 -2.351562 9.09375 -2.875 C 9.519531 -3.394531 9.953125 -4.445312 10.390625 -6.03125 Z M 10.390625 -6.03125 "/></g></g></g><g fill="#ffffff" fill-opacity="1"><g transform="translate(52.487423, 28.651258)"><g><path d="M 5.40625 -4.953125 L 3.4375 -4.953125 L 2.5625 0 L 1.875 0 L 2.75 -4.953125 L 0.78125 -4.953125 L 0.875 -5.515625 L 5.5 -5.515625 Z M 5.40625 -4.953125 "/></g></g></g><g fill="#ffffff" fill-opacity="1"><g transform="translate(58.125123, 28.651258)"><g><path d="M 3.046875 -4.359375 C 3.472656 -4.359375 3.796875 -4.257812 4.015625 -4.0625 C 4.234375 -3.875 4.34375 -3.609375 4.34375 -3.265625 C 4.34375 -3.046875 4.304688 -2.753906 4.234375 -2.390625 L 3.8125 0 L 3.125 0 L 3.546875 -2.34375 C 3.597656 -2.664062 3.625 -2.910156 3.625 -3.078125 C 3.625 -3.578125 3.351562 -3.820312 2.8125 -3.8125 C 1.988281 -3.789062 1.460938 -3.140625 1.234375 -1.859375 L 0.90625 0 L 0.21875 0 L 1.265625 -5.921875 L 1.953125 -5.921875 L 1.53125 -3.515625 L 1.875 -4 C 2.21875 -4.238281 2.609375 -4.359375 3.046875 -4.359375 Z M 3.046875 -4.359375 "/></g></g></g><g fill="#ffffff" fill-opacity="1"><g transform="translate(63.618885, 28.651258)"><g><path d="M 4.03125 -1.90625 L 0.96875 -1.90625 C 0.957031 -1.757812 0.953125 -1.648438 0.953125 -1.578125 C 0.953125 -1.179688 1.035156 -0.890625 1.203125 -0.703125 C 1.378906 -0.515625 1.613281 -0.421875 1.90625 -0.421875 C 2.195312 -0.421875 2.457031 -0.503906 2.6875 -0.671875 C 2.914062 -0.835938 3.078125 -1.070312 3.171875 -1.375 L 3.890625 -1.375 C 3.722656 -0.882812 3.445312 -0.515625 3.0625 -0.265625 C 2.675781 -0.015625 2.253906 0.109375 1.796875 0.109375 C 1.304688 0.109375 0.914062 -0.0351562 0.625 -0.328125 C 0.34375 -0.617188 0.203125 -1.023438 0.203125 -1.546875 C 0.203125 -1.878906 0.242188 -2.203125 0.328125 -2.515625 C 0.421875 -2.828125 0.554688 -3.125 0.734375 -3.40625 C 0.921875 -3.6875 1.171875 -3.914062 1.484375 -4.09375 C 1.796875 -4.269531 2.15625 -4.359375 2.5625 -4.359375 C 3.050781 -4.359375 3.4375 -4.210938 3.71875 -3.921875 C 4.007812 -3.640625 4.15625 -3.257812 4.15625 -2.78125 C 4.15625 -2.46875 4.113281 -2.175781 4.03125 -1.90625 Z M 2.453125 -3.828125 C 2.066406 -3.828125 1.757812 -3.695312 1.53125 -3.4375 C 1.300781 -3.175781 1.140625 -2.84375 1.046875 -2.4375 L 3.453125 -2.4375 C 3.460938 -2.570312 3.46875 -2.671875 3.46875 -2.734375 C 3.46875 -3.078125 3.375 -3.34375 3.1875 -3.53125 C 3.007812 -3.726562 2.765625 -3.828125 2.453125 -3.828125 Z M 2.453125 -3.828125 "/></g></g></g><g fill="#ffffff" fill-opacity="1"><g transform="translate(68.664848, 28.651258)"><g/></g></g><g fill="#ffffff" fill-opacity="1"><g transform="translate(70.968039, 28.651258)"><g><path d="M 2.875 -5.625 C 3.4375 -5.625 3.851562 -5.472656 4.125 -5.171875 C 4.40625 -4.878906 4.535156 -4.484375 4.515625 -3.984375 L 3.78125 -3.984375 C 3.800781 -4.335938 3.71875 -4.609375 3.53125 -4.796875 C 3.34375 -4.992188 3.078125 -5.09375 2.734375 -5.09375 C 2.390625 -5.09375 2.109375 -5 1.890625 -4.8125 C 1.679688 -4.625 1.578125 -4.375 1.578125 -4.0625 C 1.578125 -3.832031 1.65625 -3.648438 1.8125 -3.515625 C 1.976562 -3.378906 2.238281 -3.269531 2.59375 -3.1875 C 3.125 -3.0625 3.515625 -2.878906 3.765625 -2.640625 C 4.023438 -2.398438 4.15625 -2.078125 4.15625 -1.671875 C 4.15625 -1.128906 3.945312 -0.695312 3.53125 -0.375 C 3.113281 -0.0507812 2.582031 0.109375 1.9375 0.109375 C 1.363281 0.109375 0.910156 -0.0351562 0.578125 -0.328125 C 0.253906 -0.628906 0.109375 -1.039062 0.140625 -1.5625 L 0.875 -1.5625 C 0.882812 -1.207031 0.992188 -0.929688 1.203125 -0.734375 C 1.410156 -0.535156 1.695312 -0.4375 2.0625 -0.4375 C 2.4375 -0.4375 2.75 -0.535156 3 -0.734375 C 3.257812 -0.929688 3.390625 -1.203125 3.390625 -1.546875 C 3.390625 -1.804688 3.296875 -2.015625 3.109375 -2.171875 C 2.929688 -2.328125 2.632812 -2.453125 2.21875 -2.546875 C 1.769531 -2.660156 1.421875 -2.816406 1.171875 -3.015625 C 0.929688 -3.222656 0.8125 -3.503906 0.8125 -3.859375 C 0.8125 -4.390625 1.007812 -4.816406 1.40625 -5.140625 C 1.800781 -5.460938 2.289062 -5.625 2.875 -5.625 Z M 2.875 -5.625 "/></g></g></g><g fill="#ffffff" fill-opacity="1"><g transform="translate(76.221909, 28.651258)"><g><path d="M 4.03125 -1.90625 L 0.96875 -1.90625 C 0.957031 -1.757812 0.953125 -1.648438 0.953125 -1.578125 C 0.953125 -1.179688 1.035156 -0.890625 1.203125 -0.703125 C 1.378906 -0.515625 1.613281 -0.421875 1.90625 -0.421875 C 2.195312 -0.421875 2.457031 -0.503906 2.6875 -0.671875 C 2.914062 -0.835938 3.078125 -1.070312 3.171875 -1.375 L 3.890625 -1.375 C 3.722656 -0.882812 3.445312 -0.515625 3.0625 -0.265625 C 2.675781 -0.015625 2.253906 0.109375 1.796875 0.109375 C 1.304688 0.109375 0.914062 -0.0351562 0.625 -0.328125 C 0.34375 -0.617188 0.203125 -1.023438 0.203125 -1.546875 C 0.203125 -1.878906 0.242188 -2.203125 0.328125 -2.515625 C 0.421875 -2.828125 0.554688 -3.125 0.734375 -3.40625 C 0.921875 -3.6875 1.171875 -3.914062 1.484375 -4.09375 C 1.796875 -4.269531 2.15625 -4.359375 2.5625 -4.359375 C 3.050781 -4.359375 3.4375 -4.210938 3.71875 -3.921875 C 4.007812 -3.640625 4.15625 -3.257812 4.15625 -2.78125 C 4.15625 -2.46875 4.113281 -2.175781 4.03125 -1.90625 Z M 2.453125 -3.828125 C 2.066406 -3.828125 1.757812 -3.695312 1.53125 -3.4375 C 1.300781 -3.175781 1.140625 -2.84375 1.046875 -2.4375 L 3.453125 -2.4375 C 3.460938 -2.570312 3.46875 -2.671875 3.46875 -2.734375 C 3.46875 -3.078125 3.375 -3.34375 3.1875 -3.53125 C 3.007812 -3.726562 2.765625 -3.828125 2.453125 -3.828125 Z M 2.453125 -3.828125 "/></g></g></g><g fill="#ffffff" fill-opacity="1"><g transform="translate(81.267873, 28.651258)"><g><path d="M 1.90625 -5.875 L 1.09375 -1.21875 C 1.050781 -1.007812 1.03125 -0.867188 1.03125 -0.796875 C 1.03125 -0.660156 1.0625 -0.570312 1.125 -0.53125 C 1.195312 -0.5 1.320312 -0.488281 1.5 -0.5 L 1.40625 0 C 1.257812 0.0195312 1.09375 0.03125 0.90625 0.03125 C 0.707031 0.03125 0.554688 -0.00390625 0.453125 -0.078125 C 0.347656 -0.148438 0.296875 -0.285156 0.296875 -0.484375 C 0.296875 -0.578125 0.332031 -0.8125 0.40625 -1.1875 L 1.21875 -5.875 Z M 1.90625 -5.875 "/></g></g></g><g fill="#ffffff" fill-opacity="1"><g transform="translate(83.986877, 28.651258)"><g><path d="M 1.890625 -5.0625 C 1.835938 -4.90625 1.800781 -4.757812 1.78125 -4.625 L 1.703125 -4.203125 L 2.578125 -4.203125 L 2.484375 -3.6875 L 1.609375 -3.6875 L 0.96875 0 L 0.28125 0 L 0.921875 -3.6875 L 0.546875 -3.6875 L 0.640625 -4.203125 L 1.015625 -4.203125 L 1.078125 -4.5625 C 1.117188 -4.78125 1.160156 -4.953125 1.203125 -5.078125 C 1.296875 -5.378906 1.445312 -5.613281 1.65625 -5.78125 C 1.863281 -5.945312 2.113281 -6.03125 2.40625 -6.03125 C 2.625 -6.03125 2.8125 -6.015625 2.96875 -5.984375 L 2.859375 -5.421875 C 2.765625 -5.441406 2.660156 -5.453125 2.546875 -5.453125 C 2.210938 -5.453125 1.992188 -5.320312 1.890625 -5.0625 Z M 1.890625 -5.0625 "/></g></g></g><g fill="#ffffff" fill-opacity="1"><g transform="translate(86.905792, 28.651258)"><g><path d="M 1.5625 -5.625 C 1.675781 -5.625 1.765625 -5.585938 1.828125 -5.515625 C 1.898438 -5.453125 1.9375 -5.367188 1.9375 -5.265625 C 1.9375 -5.117188 1.882812 -4.992188 1.78125 -4.890625 C 1.6875 -4.796875 1.566406 -4.75 1.421875 -4.75 C 1.304688 -4.75 1.210938 -4.78125 1.140625 -4.84375 C 1.078125 -4.914062 1.046875 -5.007812 1.046875 -5.125 C 1.046875 -5.257812 1.097656 -5.375 1.203125 -5.46875 C 1.304688 -5.570312 1.425781 -5.625 1.5625 -5.625 Z M 0.90625 0 L 0.21875 0 L 0.96875 -4.234375 L 1.65625 -4.234375 Z M 0.90625 0 "/></g></g></g><g fill="#ffffff" fill-opacity="1"><g transform="translate(89.512846, 28.651258)"><g><path d="M 4.03125 -1.90625 L 0.96875 -1.90625 C 0.957031 -1.757812 0.953125 -1.648438 0.953125 -1.578125 C 0.953125 -1.179688 1.035156 -0.890625 1.203125 -0.703125 C 1.378906 -0.515625 1.613281 -0.421875 1.90625 -0.421875 C 2.195312 -0.421875 2.457031 -0.503906 2.6875 -0.671875 C 2.914062 -0.835938 3.078125 -1.070312 3.171875 -1.375 L 3.890625 -1.375 C 3.722656 -0.882812 3.445312 -0.515625 3.0625 -0.265625 C 2.675781 -0.015625 2.253906 0.109375 1.796875 0.109375 C 1.304688 0.109375 0.914062 -0.0351562 0.625 -0.328125 C 0.34375 -0.617188 0.203125 -1.023438 0.203125 -1.546875 C 0.203125 -1.878906 0.242188 -2.203125 0.328125 -2.515625 C 0.421875 -2.828125 0.554688 -3.125 0.734375 -3.40625 C 0.921875 -3.6875 1.171875 -3.914062 1.484375 -4.09375 C 1.796875 -4.269531 2.15625 -4.359375 2.5625 -4.359375 C 3.050781 -4.359375 3.4375 -4.210938 3.71875 -3.921875 C 4.007812 -3.640625 4.15625 -3.257812 4.15625 -2.78125 C 4.15625 -2.46875 4.113281 -2.175781 4.03125 -1.90625 Z M 2.453125 -3.828125 C 2.066406 -3.828125 1.757812 -3.695312 1.53125 -3.4375 C 1.300781 -3.175781 1.140625 -2.84375 1.046875 -2.4375 L 3.453125 -2.4375 C 3.460938 -2.570312 3.46875 -2.671875 3.46875 -2.734375 C 3.46875 -3.078125 3.375 -3.34375 3.1875 -3.53125 C 3.007812 -3.726562 2.765625 -3.828125 2.453125 -3.828125 Z M 2.453125 -3.828125 "/></g></g></g><g fill="#ffffff" fill-opacity="1"><g transform="translate(94.558807, 28.651258)"><g/></g></g><g fill="#ffffff" fill-opacity="1"><g transform="translate(96.861997, 28.651258)"><g><path d="M 2.65625 -4.359375 C 3.269531 -4.359375 3.726562 -4.175781 4.03125 -3.8125 C 4.332031 -3.457031 4.484375 -3.015625 4.484375 -2.484375 C 4.484375 -2.179688 4.429688 -1.878906 4.328125 -1.578125 C 4.234375 -1.285156 4.09375 -1.007812 3.90625 -0.75 C 3.71875 -0.5 3.460938 -0.289062 3.140625 -0.125 C 2.816406 0.03125 2.453125 0.109375 2.046875 0.109375 C 1.429688 0.109375 0.972656 -0.0664062 0.671875 -0.421875 C 0.367188 -0.773438 0.21875 -1.222656 0.21875 -1.765625 C 0.21875 -2.054688 0.265625 -2.347656 0.359375 -2.640625 C 0.460938 -2.941406 0.609375 -3.222656 0.796875 -3.484375 C 0.984375 -3.742188 1.238281 -3.953125 1.5625 -4.109375 C 1.882812 -4.273438 2.25 -4.359375 2.65625 -4.359375 Z M 2.125 -0.421875 C 2.457031 -0.421875 2.75 -0.523438 3 -0.734375 C 3.257812 -0.941406 3.445312 -1.195312 3.5625 -1.5 C 3.675781 -1.800781 3.734375 -2.125 3.734375 -2.46875 C 3.734375 -2.863281 3.632812 -3.1875 3.4375 -3.4375 C 3.238281 -3.695312 2.953125 -3.828125 2.578125 -3.828125 C 2.242188 -3.828125 1.945312 -3.71875 1.6875 -3.5 C 1.4375 -3.289062 1.253906 -3.035156 1.140625 -2.734375 C 1.023438 -2.429688 0.96875 -2.113281 0.96875 -1.78125 C 0.96875 -1.375 1.066406 -1.046875 1.265625 -0.796875 C 1.460938 -0.546875 1.75 -0.421875 2.125 -0.421875 Z M 2.125 -0.421875 "/></g></g></g><g fill="#ffffff" fill-opacity="1"><g transform="translate(102.299785, 28.651258)"><g><path d="M 1.890625 -5.0625 C 1.835938 -4.90625 1.800781 -4.757812 1.78125 -4.625 L 1.703125 -4.203125 L 2.578125 -4.203125 L 2.484375 -3.6875 L 1.609375 -3.6875 L 0.96875 0 L 0.28125 0 L 0.921875 -3.6875 L 0.546875 -3.6875 L 0.640625 -4.203125 L 1.015625 -4.203125 L 1.078125 -4.5625 C 1.117188 -4.78125 1.160156 -4.953125 1.203125 -5.078125 C 1.296875 -5.378906 1.445312 -5.613281 1.65625 -5.78125 C 1.863281 -5.945312 2.113281 -6.03125 2.40625 -6.03125 C 2.625 -6.03125 2.8125 -6.015625 2.96875 -5.984375 L 2.859375 -5.421875 C 2.765625 -5.441406 2.660156 -5.453125 2.546875 -5.453125 C 2.210938 -5.453125 1.992188 -5.320312 1.890625 -5.0625 Z M 1.890625 -5.0625 "/></g></g></g><g fill="#ffffff" fill-opacity="1"><g transform="translate(105.2187, 28.651258)"><g/></g></g><g fill="#ffffff" fill-opacity="1"><g transform="translate(107.52189, 28.651258)"><g><path d="M 1.625 -3.6875 L 1.1875 -1.234375 C 1.15625 -1.023438 1.140625 -0.878906 1.140625 -0.796875 C 1.140625 -0.648438 1.191406 -0.550781 1.296875 -0.5 C 1.410156 -0.457031 1.582031 -0.457031 1.8125 -0.5 L 1.71875 0 C 1.5625 0.0390625 1.390625 0.0625 1.203125 0.0625 C 0.679688 0.0625 0.421875 -0.140625 0.421875 -0.546875 C 0.421875 -0.671875 0.445312 -0.890625 0.5 -1.203125 L 0.9375 -3.6875 L 0.390625 -3.6875 L 0.484375 -4.203125 L 1.03125 -4.203125 L 1.203125 -5.1875 L 1.890625 -5.1875 L 1.71875 -4.203125 L 2.453125 -4.203125 L 2.359375 -3.6875 Z M 1.625 -3.6875 "/></g></g></g><g fill="#ffffff" fill-opacity="1"><g transform="translate(110.680696, 28.651258)"><g><path d="M 3.046875 -4.359375 C 3.472656 -4.359375 3.796875 -4.257812 4.015625 -4.0625 C 4.234375 -3.875 4.34375 -3.609375 4.34375 -3.265625 C 4.34375 -3.046875 4.304688 -2.753906 4.234375 -2.390625 L 3.8125 0 L 3.125 0 L 3.546875 -2.34375 C 3.597656 -2.664062 3.625 -2.910156 3.625 -3.078125 C 3.625 -3.578125 3.351562 -3.820312 2.8125 -3.8125 C 1.988281 -3.789062 1.460938 -3.140625 1.234375 -1.859375 L 0.90625 0 L 0.21875 0 L 1.265625 -5.921875 L 1.953125 -5.921875 L 1.53125 -3.515625 L 1.875 -4 C 2.21875 -4.238281 2.609375 -4.359375 3.046875 -4.359375 Z M 3.046875 -4.359375 "/></g></g></g><g fill="#ffffff" fill-opacity="1"><g transform="translate(116.174461, 28.651258)"><g><path d="M 4.03125 -1.90625 L 0.96875 -1.90625 C 0.957031 -1.757812 0.953125 -1.648438 0.953125 -1.578125 C 0.953125 -1.179688 1.035156 -0.890625 1.203125 -0.703125 C 1.378906 -0.515625 1.613281 -0.421875 1.90625 -0.421875 C 2.195312 -0.421875 2.457031 -0.503906 2.6875 -0.671875 C 2.914062 -0.835938 3.078125 -1.070312 3.171875 -1.375 L 3.890625 -1.375 C 3.722656 -0.882812 3.445312 -0.515625 3.0625 -0.265625 C 2.675781 -0.015625 2.253906 0.109375 1.796875 0.109375 C 1.304688 0.109375 0.914062 -0.0351562 0.625 -0.328125 C 0.34375 -0.617188 0.203125 -1.023438 0.203125 -1.546875 C 0.203125 -1.878906 0.242188 -2.203125 0.328125 -2.515625 C 0.421875 -2.828125 0.554688 -3.125 0.734375 -3.40625 C 0.921875 -3.6875 1.171875 -3.914062 1.484375 -4.09375 C 1.796875 -4.269531 2.15625 -4.359375 2.5625 -4.359375 C 3.050781 -4.359375 3.4375 -4.210938 3.71875 -3.921875 C 4.007812 -3.640625 4.15625 -3.257812 4.15625 -2.78125 C 4.15625 -2.46875 4.113281 -2.175781 4.03125 -1.90625 Z M 2.453125 -3.828125 C 2.066406 -3.828125 1.757812 -3.695312 1.53125 -3.4375 C 1.300781 -3.175781 1.140625 -2.84375 1.046875 -2.4375 L 3.453125 -2.4375 C 3.460938 -2.570312 3.46875 -2.671875 3.46875 -2.734375 C 3.46875 -3.078125 3.375 -3.34375 3.1875 -3.53125 C 3.007812 -3.726562 2.765625 -3.828125 2.453125 -3.828125 Z M 2.453125 -3.828125 "/></g></g></g><g fill="#ffffff" fill-opacity="1"><g transform="translate(121.220426, 28.651258)"><g/></g></g><g fill="#ffffff" fill-opacity="1"><g transform="translate(123.523616, 28.651258)"><g><path d="M 4.96875 -5.875 L 3.9375 0 L 3.25 0 L 3.375 -0.6875 L 2.96875 -0.21875 C 2.664062 0 2.273438 0.109375 1.796875 0.109375 C 1.285156 0.109375 0.890625 -0.0507812 0.609375 -0.375 C 0.335938 -0.695312 0.203125 -1.109375 0.203125 -1.609375 C 0.203125 -1.878906 0.234375 -2.144531 0.296875 -2.40625 C 0.367188 -2.664062 0.472656 -2.910156 0.609375 -3.140625 C 0.742188 -3.378906 0.90625 -3.585938 1.09375 -3.765625 C 1.289062 -3.941406 1.523438 -4.082031 1.796875 -4.1875 C 2.078125 -4.300781 2.382812 -4.359375 2.71875 -4.359375 C 2.894531 -4.359375 3.078125 -4.320312 3.265625 -4.25 C 3.453125 -4.1875 3.59375 -4.101562 3.6875 -4 L 3.875 -3.578125 L 4.28125 -5.875 Z M 3.609375 -2.078125 L 3.65625 -2.3125 C 3.726562 -2.726562 3.675781 -3.082031 3.5 -3.375 C 3.320312 -3.675781 3.03125 -3.828125 2.625 -3.828125 C 2.113281 -3.828125 1.707031 -3.609375 1.40625 -3.171875 C 1.101562 -2.734375 0.953125 -2.222656 0.953125 -1.640625 C 0.953125 -1.273438 1.039062 -0.976562 1.21875 -0.75 C 1.394531 -0.53125 1.648438 -0.421875 1.984375 -0.421875 C 2.367188 -0.421875 2.710938 -0.550781 3.015625 -0.8125 C 3.316406 -1.082031 3.515625 -1.503906 3.609375 -2.078125 Z M 3.609375 -2.078125 "/></g></g></g><g fill="#ffffff" fill-opacity="1"><g transform="translate(129.153319, 28.651258)"><g><path d="M 2.4375 -4.359375 C 2.894531 -4.359375 3.234375 -4.265625 3.453125 -4.078125 C 3.679688 -3.890625 3.796875 -3.628906 3.796875 -3.296875 C 3.796875 -3.160156 3.769531 -2.953125 3.71875 -2.671875 L 3.4375 -1.078125 C 3.382812 -0.773438 3.347656 -0.414062 3.328125 0 L 2.640625 0 L 2.671875 -0.609375 L 2.375 -0.21875 C 2.144531 0 1.769531 0.109375 1.25 0.109375 C 0.9375 0.109375 0.664062 0.015625 0.4375 -0.171875 C 0.207031 -0.359375 0.09375 -0.628906 0.09375 -0.984375 C 0.09375 -1.566406 0.363281 -1.988281 0.90625 -2.25 C 1.445312 -2.519531 2.148438 -2.617188 3.015625 -2.546875 L 3.03125 -2.65625 C 3.082031 -2.925781 3.109375 -3.117188 3.109375 -3.234375 C 3.109375 -3.410156 3.050781 -3.550781 2.9375 -3.65625 C 2.832031 -3.769531 2.660156 -3.828125 2.421875 -3.828125 C 2.078125 -3.828125 1.816406 -3.753906 1.640625 -3.609375 C 1.460938 -3.460938 1.335938 -3.234375 1.265625 -2.921875 L 0.546875 -2.921875 C 0.640625 -3.367188 0.851562 -3.71875 1.1875 -3.96875 C 1.519531 -4.226562 1.9375 -4.359375 2.4375 -4.359375 Z M 1.578125 -0.421875 C 1.847656 -0.421875 2.109375 -0.535156 2.359375 -0.765625 C 2.617188 -0.992188 2.78125 -1.273438 2.84375 -1.609375 L 2.921875 -2.046875 C 2.335938 -2.109375 1.84375 -2.054688 1.4375 -1.890625 C 1.039062 -1.722656 0.84375 -1.445312 0.84375 -1.0625 C 0.84375 -0.851562 0.910156 -0.691406 1.046875 -0.578125 C 1.179688 -0.472656 1.359375 -0.421875 1.578125 -0.421875 Z M 1.578125 -0.421875 "/></g></g></g><g fill="#ffffff" fill-opacity="1"><g transform="translate(133.935405, 28.651258)"><g><path d="M 4.375 -4.234375 L 2.015625 0 C 1.648438 0.65625 1.335938 1.097656 1.078125 1.328125 C 0.816406 1.566406 0.488281 1.6875 0.09375 1.6875 C -0.0195312 1.6875 -0.128906 1.675781 -0.234375 1.65625 L -0.140625 1.09375 C -0.0546875 1.101562 0.0234375 1.109375 0.109375 1.109375 C 0.328125 1.109375 0.507812 1.050781 0.65625 0.9375 C 0.8125 0.832031 0.960938 0.644531 1.109375 0.375 L 1.1875 0.234375 L 0.28125 -4.234375 L 1.0625 -4.234375 L 1.671875 -0.5 L 3.578125 -4.234375 Z M 4.375 -4.234375 "/></g></g></g><g fill="#ffffff" fill-opacity="1"><g transform="translate(138.62153, 28.651258)"><g><path d="M 1.21875 -1.4375 L 0.59375 -1.4375 L 1.296875 -5.515625 L 2.125 -5.515625 Z M 0.828125 -0.90625 C 0.960938 -0.90625 1.066406 -0.867188 1.140625 -0.796875 C 1.210938 -0.722656 1.25 -0.625 1.25 -0.5 C 1.25 -0.320312 1.1875 -0.175781 1.0625 -0.0625 C 0.945312 0.0507812 0.804688 0.109375 0.640625 0.109375 C 0.515625 0.109375 0.410156 0.0703125 0.328125 0 C 0.253906 -0.0703125 0.21875 -0.171875 0.21875 -0.296875 C 0.21875 -0.472656 0.273438 -0.617188 0.390625 -0.734375 C 0.515625 -0.847656 0.660156 -0.90625 0.828125 -0.90625 Z M 0.828125 -0.90625 "/></g></g></g><g clip-path="url(#2f30879632)"><path fill="#004aad" d="M 6.972656 31.25 C 6.972656 31.25 27.019531 17.023438 55.847656 24.058594 C 55.847656 24.058594 30.628906 21.394531 0.273438 39.113281 L 6.972656 31.25 " fill-opacity="1" fill-rule="nonzero"/></g><g clip-path="url(#8a34d34ce0)"><path fill="#ffffff" d="M 30.410156 2.878906 L 14.695312 2.878906 L 14.695312 6.351562 L 27.519531 6.351562 L 8.773438 28.886719 L 38.621094 2.878906 L 30.410156 2.878906 " fill-opacity="1" fill-rule="nonzero"/></g><g clip-path="url(#9277e6a3aa)"><path fill="#004aad" d="M 22.253906 22.554688 L 38.621094 2.878906 L 8.773438 28.886719 C 11.445312 27.332031 16.984375 24.507812 24.679688 22.660156 C 32.820312 20.179688 43.445312 18.527344 55.847656 20.234375 C 41.921875 17.582031 30.265625 19.796875 22.253906 22.554688 " fill-opacity="1" fill-rule="nonzero"/></g></svg>